<svg width="32" height="33" viewBox="0 0 32 33" fill="none" xmlns="http://www.w3.org/2000/svg">
    <path
        d="M28.2667 3.6521H3.73341C3.14341 3.6521 2.66675 4.12877 2.66675 4.71877V29.2521C2.66675 29.8421 3.14341 30.3188 3.73341 30.3188H28.2667C28.8567 30.3188 29.3334 29.8421 29.3334 29.2521V4.71877C29.3334 4.12877 28.8567 3.6521 28.2667 3.6521ZM10.5767 26.3754H6.62008V13.6488H10.5767V26.3754ZM8.60008 11.9088C8.14651 11.9088 7.70311 11.7743 7.32597 11.5223C6.94884 11.2703 6.65489 10.9121 6.48132 10.4931C6.30773 10.074 6.26232 9.61289 6.35081 9.16802C6.43931 8.72317 6.65772 8.31453 6.97845 7.99381C7.29917 7.67307 7.70781 7.45466 8.15267 7.36617C8.59753 7.27767 9.05865 7.32309 9.47771 7.49667C9.89675 7.67025 10.2549 7.96419 10.5069 8.34133C10.7589 8.71846 10.8934 9.16186 10.8934 9.61543C10.8901 10.8821 9.86341 11.9088 8.60008 11.9088ZM25.3901 26.3754H21.4367V20.1854C21.4367 18.7088 21.4101 16.8121 19.3801 16.8121C17.3234 16.8121 17.0067 18.4188 17.0067 20.0788V26.3754H13.0567V13.6488H16.8501V15.3888H16.9034C17.4301 14.3888 18.7201 13.3321 20.6467 13.3321C24.6534 13.3321 25.3901 15.9688 25.3901 19.3954V26.3754Z"
        fill="white" />
</svg>
    