<svg width="48" height="49" viewBox="0 0 48 49" fill="none" xmlns="http://www.w3.org/2000/svg">
    <circle cx="24" cy="24.9854" r="24" fill="#1F94AA" />
    <path
        d="M37.0319 18.0597L24.3697 11.7281C24.2699 11.6781 24.1599 11.6521 24.0483 11.6521C23.9368 11.6521 23.8268 11.6781 23.727 11.7281L11.0639 18.0597C10.9438 18.1187 10.8429 18.2104 10.7726 18.3242C10.7023 18.4381 10.6656 18.5694 10.6666 18.7032V31.3645C10.6647 31.4991 10.7011 31.6314 10.7714 31.7461C10.8417 31.8608 10.9432 31.9532 11.0639 32.0125L23.727 38.3441C23.827 38.3932 23.9369 38.4187 24.0483 38.4187C24.1598 38.4187 24.2697 38.3932 24.3697 38.3441L37.0337 32.0117C37.1537 31.9522 37.2545 31.8602 37.3245 31.746C37.3944 31.6318 37.4308 31.5002 37.4292 31.3663V18.7032C37.4297 18.5695 37.3928 18.4384 37.3225 18.3246C37.2523 18.2109 37.1516 18.1191 37.0319 18.0597ZM30.2355 16.2685L19.5146 21.9645L17.4763 20.9468L28.1972 15.2517L30.2355 16.2685ZM18.8088 23.217V26.0134L18.2257 25.4303C18.1592 25.3635 18.0801 25.3105 17.993 25.2745C17.9058 25.2384 17.8124 25.2201 17.7181 25.2205H16.6266V22.1272L18.8088 23.217ZM24.0532 13.1725L26.6177 14.4579L15.8977 20.1521L12.9928 18.7023L24.0532 13.1725ZM23.3323 36.5317L12.1039 30.9219V19.8668L15.1892 21.409V25.9423C15.1895 26.1329 15.2653 26.3156 15.4002 26.4502C15.535 26.5849 15.7178 26.6605 15.9083 26.6605H17.4195L19.0195 28.2605C19.1543 28.3947 19.3368 28.4698 19.527 28.4694C19.7173 28.469 19.8996 28.3931 20.034 28.2585C20.1685 28.1239 20.2441 27.9415 20.2444 27.7512V23.9361L23.3288 25.4801L23.3323 36.5317ZM24.0479 24.2303L21.0959 22.7565L31.8168 17.0588L35.1057 18.7041L24.0479 24.2303ZM35.9928 30.9219L24.7661 36.5343V25.4801L35.9919 19.8677L35.9928 30.9219Z"
        fill="white" />
</svg>
    