<svg width="48" height="49" viewBox="0 0 48 49" fill="none" xmlns="http://www.w3.org/2000/svg">
    <g clip-path="url(#clip0_0_434)">
    <circle cx="24" cy="24.9854" r="24" fill="#1F94AA"/>
    <path d="M25.3514 22.941L23.7274 19.6521L22.1051 22.941L18.4731 23.4743L21.1016 26.0317L20.4794 29.6485L23.7274 27.9392L26.9754 29.6485L26.3531 26.0317L28.9789 23.469L25.3514 22.941Z" fill="white"/>
    <path d="M12.0776 24.8093L10.906 22.4351L9.73177 24.8102L7.11133 25.1906L9.00466 27.0386L8.56022 29.6484L10.9042 28.4164L13.2447 29.6484L12.8002 27.0386L14.6971 25.1906L12.0776 24.8093Z" fill="white"/>
    <path d="M37.9985 24.8093L36.827 22.4351L35.6536 24.8102L33.0332 25.1906L34.9265 27.0386L34.4821 29.6484L36.8261 28.4164L39.1665 29.6484L38.7221 27.0386L40.6181 25.1897L37.9985 24.8093Z" fill="white"/>
    </g>
    <defs>
    <clipPath id="clip0_0_434">
    <rect width="48" height="48" fill="white" transform="translate(0 0.985352)"/>
    </clipPath>
    </defs>
    </svg>
    